<svg width="48" height="48" viewBox="0 0 48 48" fill="none" xmlns="http://www.w3.org/2000/svg">
<rect width="48" height="48" rx="12" fill="#C8FF57"/>
<path d="M23.166 18.2998C23.0109 18.6934 22.9587 19.1191 23.0176 19.54C23.0785 19.9754 23.2547 20.3827 23.5215 20.7275C23.7878 21.0718 24.1357 21.343 24.5273 21.5264C24.9179 21.7092 25.3465 21.8007 25.7773 21.7998V21.8008H38.2197C38.3876 21.8003 38.5463 21.8429 38.6758 21.916C38.8048 21.9889 38.8929 22.0848 38.9434 22.1797C38.9928 22.2728 39.0079 22.3682 38.9961 22.458C38.9851 22.542 38.9469 22.6311 38.876 22.7168L21.6445 38.6973L24.8359 29.6924C24.9888 29.3009 25.041 28.8782 24.9824 28.46C24.9215 28.0246 24.7453 27.6173 24.4785 27.2725C24.2122 26.9282 23.8643 26.657 23.4727 26.4736C23.0821 26.2908 22.6535 26.1983 22.2227 26.1992H9.78027C9.61238 26.1997 9.4537 26.1571 9.32422 26.084C9.19524 26.0111 9.10706 25.9152 9.05664 25.8203C9.00724 25.7272 8.99211 25.6318 9.00391 25.542C9.01495 25.458 9.05208 25.3679 9.12305 25.2822L26.3545 9.30176L23.166 18.2998Z" stroke="#111111" stroke-width="2" stroke-linecap="round"/>
</svg>
